<svg width="1024" height="1024" viewBox="0 0 1024 1024" xmlns="http://www.w3.org/2000/svg">
  <defs>
    <filter id="shadow">
      <feDropShadow result="drop-shadow-0" in="SourceGraphic" style="flood-opacity: 0.3;" stdDeviation="10" dx="0" dy="10"/>
    </filter>
    <clipPath id="clip-0">
      <path style="stroke-width: 3px; fill: rgb(255, 255, 255);" d="M 100 724 L 100 300 C 100 185.001 170 99.995 300.026 100 L 724 99.995 C 854 100 924 185.001 924 300 L 924 724 C 924 839.001 854 923.995 724 924 L 300.026 924 C 170 924 100 839.001 100 724 Z"/>
    </clipPath>
  </defs>
  <g style="filter: url(#shadow);">
    <g style="clip-path: url(#clip-0);">
      <path style="stroke-width: 3px; fill: rgb(255, 255, 255);" d="M 100 724 L 100 300 C 100 185.001 170 99.995 300.026 100 L 724 99.995 C 854 100 924 185.001 924 300 L 924 724 C 924 839.001 854 923.995 724 924 L 300.026 924 C 170 924 100 839.001 100 724 Z"/>
    </g>
  </g>
  <path d="M 574.549744 673.191895 L 445.566467 673.191895 C 410.11441 673.191895 404.718475 635.171021 411.326447 619.90863 C 414.477448 612.66626 421.612335 602.18335 428.365112 593.61853 C 454.037292 607.792725 482.887299 615.212769 512.212036 615.182861 C 558.408203 615.12915 602.696777 596.753052 635.359009 564.086304 C 668.024292 531.419556 686.394409 487.129456 686.443665 440.93335 C 686.454102 416.515015 681.319397 392.366821 671.37384 370.065063 C 661.428223 347.76178 646.895752 327.806519 628.721191 311.496277 L 632.723022 307.440735 C 637.403992 302.679199 643.099976 299.037109 649.387024 296.786194 C 655.672546 294.535156 662.385071 293.733643 669.025879 294.441162 L 689.991699 296.668213 L 689.991699 211.26355 L 653.34552 211.26355 C 633.482788 211.273865 614.078247 217.223328 597.62323 228.348083 C 581.169678 239.472839 568.417908 255.263367 561.006897 273.691772 C 545.128052 269.042175 528.667053 266.682312 512.122437 266.685303 C 465.924774 266.737488 421.634735 285.113647 388.966492 317.778809 C 356.301208 350.447083 337.92514 394.735657 337.872894 440.93335 C 337.82663 478.076538 349.70816 514.252563 371.766632 544.135498 L 361.446411 552.083862 C 359.905975 553.261597 358.150635 554.745239 356.341522 556.448364 C 321.035767 589.362915 304.8479 632.491699 314.099396 680.452148 C 319.169952 706.724365 341.476166 734.010132 364.180939 748.47699 C 380.337433 758.634521 399.015045 764.066284 418.098633 764.155823 L 562.708557 758.289673 C 570.740479 758.270264 578.64563 760.285339 585.689453 764.143921 C 592.733276 768.00238 598.685974 773.581909 602.993774 780.360046 L 621.895264 814.47168 L 711.536682 784.506714 L 696.202637 751.120483 C 685.503296 727.854431 668.354187 708.146912 646.792786 694.335388 C 625.229858 680.522339 600.157776 673.185913 574.549744 673.191895 Z M 512.212036 357.592407 C 534.288391 357.631226 555.451233 366.418518 571.061401 382.030212 C 586.673096 397.64032 595.458862 418.803223 595.497681 440.879578 C 595.458862 462.955994 586.673096 484.11731 571.061401 499.729004 C 555.451233 515.340698 534.288391 524.126465 512.212036 524.165283 C 490.135651 524.126465 468.974274 515.340698 453.36261 499.729004 C 437.750916 484.11731 428.963654 462.955994 428.924866 440.879578 C 428.963654 418.803223 437.750916 397.64032 453.36261 382.030212 C 468.974274 366.418518 490.135651 357.631226 512.212036 357.592407 Z" fill="#ffb319"/>
</svg>
